<svg width="48" height="48" viewBox="0 0 48 48" fill="none" xmlns="http://www.w3.org/2000/svg">
<g id="FinnTheHuman">
<path id="Vector" opacity="0.2" d="M39 7.50078C37.8065 7.50078 36.6619 7.97488 35.818 8.8188C34.9741 9.66271 34.5 10.8073 34.5 12.0008H13.5C13.5 10.8073 13.0259 9.66271 12.182 8.8188C11.3381 7.97488 10.1935 7.50078 9 7.50078C7.80653 7.50078 6.66193 7.97488 5.81802 8.8188C4.97411 9.66271 4.5 10.8073 4.5 12.0008V27.0008C4.5 30.1834 5.76428 33.2356 8.01472 35.4861C10.2652 37.7365 13.3174 39.0008 16.5 39.0008H31.5C34.6826 39.0008 37.7348 37.7365 39.9853 35.4861C42.2357 33.2356 43.5 30.1834 43.5 27.0008V12.0008C43.5 10.8073 43.0259 9.66271 42.182 8.8188C41.3381 7.97488 40.1935 7.50078 39 7.50078ZM37.5 27.0008C37.5 28.5921 36.8679 30.1182 35.7426 31.2434C34.6174 32.3686 33.0913 33.0008 31.5 33.0008H16.5C14.9087 33.0008 13.3826 32.3686 12.2574 31.2434C11.1321 30.1182 10.5 28.5921 10.5 27.0008V25.5008C10.5 23.9095 11.1321 22.3834 12.2574 21.2581C13.3826 20.1329 14.9087 19.5008 16.5 19.5008H31.5C33.0913 19.5008 34.6174 20.1329 35.7426 21.2581C36.8679 22.3834 37.5 23.9095 37.5 25.5008V27.0008Z" fill="#001405"/>
<path id="Vector_2" d="M31.5 18.0009H16.5C14.5109 18.0009 12.6032 18.7911 11.1967 20.1976C9.79019 21.6041 9.00001 23.5118 9.00001 25.5009V27.0009C9.00001 27.9858 9.194 28.9611 9.57091 29.871C9.94782 30.781 10.5003 31.6077 11.1967 32.3042C12.6032 33.7107 14.5109 34.5009 16.5 34.5009H31.5C32.4849 34.5009 33.4602 34.3069 34.3701 33.93C35.2801 33.5531 36.1069 33.0006 36.8033 32.3042C37.4997 31.6077 38.0522 30.781 38.4291 29.871C38.806 28.9611 39 27.9858 39 27.0009V25.5009C39 23.5118 38.2098 21.6041 36.8033 20.1976C35.3968 18.7911 33.4891 18.0009 31.5 18.0009ZM36 27.0009C36 28.1944 35.5259 29.339 34.682 30.1829C33.8381 31.0268 32.6935 31.5009 31.5 31.5009H16.5C15.3065 31.5009 14.1619 31.0268 13.318 30.1829C12.4741 29.339 12 28.1944 12 27.0009V25.5009C12 24.3074 12.4741 23.1628 13.318 22.3189C14.1619 21.475 15.3065 21.0009 16.5 21.0009H31.5C32.6935 21.0009 33.8381 21.475 34.682 22.3189C35.5259 23.1628 36 24.3074 36 25.5009V27.0009ZM39 6.00088C37.6698 6.00214 36.3776 6.44458 35.3258 7.25889C34.2739 8.07321 33.5219 9.2134 33.1875 10.5009H14.8125C14.4498 9.08415 13.5821 7.84868 12.3726 7.02665C11.1631 6.20462 9.69494 5.85265 8.24416 6.03687C6.79339 6.2211 5.45984 6.92884 4.49415 8.02709C3.52847 9.12533 2.99713 10.5385 3.00001 12.0009V27.0009C3.00398 30.5801 4.42757 34.0116 6.95845 36.5424C9.48934 39.0733 12.9208 40.4969 16.5 40.5009H31.5C35.0792 40.4969 38.5107 39.0733 41.0416 36.5424C43.5724 34.0116 44.996 30.5801 45 27.0009V12.0009C45 10.4096 44.3679 8.88346 43.2426 7.75824C42.1174 6.63303 40.5913 6.00088 39 6.00088ZM42 27.0009C41.997 29.7847 40.8898 32.4537 38.9213 34.4222C36.9529 36.3907 34.2839 37.4979 31.5 37.5009H16.5C13.7162 37.4979 11.0472 36.3907 9.07868 34.4222C7.11019 32.4537 6.00299 29.7847 6.00001 27.0009V12.0009C6.00001 11.2052 6.31608 10.4422 6.87869 9.87956C7.4413 9.31695 8.20436 9.00088 9.00001 9.00088C9.79566 9.00088 10.5587 9.31695 11.1213 9.87956C11.6839 10.4422 12 11.2052 12 12.0009C12 12.3987 12.158 12.7802 12.4394 13.0615C12.7207 13.3428 13.1022 13.5009 13.5 13.5009H34.5C34.8978 13.5009 35.2794 13.3428 35.5607 13.0615C35.842 12.7802 36 12.3987 36 12.0009C36 11.2052 36.3161 10.4422 36.8787 9.87956C37.4413 9.31695 38.2044 9.00088 39 9.00088C39.7957 9.00088 40.5587 9.31695 41.1213 9.87956C41.6839 10.4422 42 11.2052 42 12.0009V27.0009ZM19.5 26.2509C19.5 26.6959 19.368 27.1309 19.1208 27.5009C18.8736 27.8709 18.5222 28.1593 18.111 28.3296C17.6999 28.4999 17.2475 28.5445 16.8111 28.4577C16.3746 28.3708 15.9737 28.1565 15.659 27.8419C15.3444 27.5272 15.1301 27.1263 15.0432 26.6898C14.9564 26.2534 15.001 25.801 15.1713 25.3898C15.3416 24.9787 15.63 24.6273 16 24.3801C16.37 24.1328 16.805 24.0009 17.25 24.0009C17.8467 24.0009 18.419 24.2379 18.841 24.6599C19.263 25.0819 19.5 25.6541 19.5 26.2509ZM33 26.2509C33 26.6959 32.868 27.1309 32.6208 27.5009C32.3736 27.8709 32.0222 28.1593 31.611 28.3296C31.1999 28.4999 30.7475 28.5445 30.3111 28.4577C29.8746 28.3708 29.4737 28.1565 29.159 27.8419C28.8444 27.5272 28.6301 27.1263 28.5432 26.6898C28.4564 26.2534 28.501 25.801 28.6713 25.3898C28.8416 24.9787 29.13 24.6273 29.5 24.3801C29.87 24.1328 30.305 24.0009 30.75 24.0009C31.3467 24.0009 31.919 24.2379 32.341 24.6599C32.763 25.0819 33 25.6541 33 26.2509Z" fill="#001405"/>
</g>
</svg>
