<svg width="65" height="64" viewBox="0 0 65 64" fill="none" xmlns="http://www.w3.org/2000/svg">
<path opacity="0.2" d="M52.5 10.001C50.9087 10.001 49.3826 10.6331 48.2574 11.7583C47.1321 12.8836 46.5 14.4097 46.5 16.001H18.5C18.5 14.4097 17.8679 12.8836 16.7426 11.7583C15.6174 10.6331 14.0913 10.001 12.5 10.001C10.9087 10.001 9.38258 10.6331 8.25736 11.7583C7.13214 12.8836 6.5 14.4097 6.5 16.001V36.001C6.5 40.2444 8.18571 44.3141 11.1863 47.3147C14.1869 50.3153 18.2565 52.001 22.5 52.001H42.5C46.7435 52.001 50.8131 50.3153 53.8137 47.3147C56.8143 44.3141 58.5 40.2444 58.5 36.001V16.001C58.5 14.4097 57.8679 12.8836 56.7426 11.7583C55.6174 10.6331 54.0913 10.001 52.5 10.001ZM50.5 36.001C50.5 38.1227 49.6571 40.1575 48.1569 41.6578C46.6566 43.1581 44.6217 44.001 42.5 44.001H22.5C20.3783 44.001 18.3434 43.1581 16.8431 41.6578C15.3429 40.1575 14.5 38.1227 14.5 36.001V34.001C14.5 31.8792 15.3429 29.8444 16.8431 28.3441C18.3434 26.8438 20.3783 26.001 22.5 26.001H42.5C44.6217 26.001 46.6566 26.8438 48.1569 28.3441C49.6571 29.8444 50.5 31.8792 50.5 34.001V36.001Z" fill="#55B982"/>
<path d="M42.5 24.0011H22.5C19.8478 24.0011 17.3043 25.0547 15.4289 26.9301C13.5536 28.8054 12.5 31.349 12.5 34.0011V36.0011C12.5 37.3143 12.7587 38.6147 13.2612 39.828C13.7638 41.0412 14.5004 42.1436 15.4289 43.0722C17.3043 44.9476 19.8478 46.0011 22.5 46.0011H42.5C43.8132 46.0011 45.1136 45.7425 46.3268 45.2399C47.5401 44.7374 48.6425 44.0008 49.5711 43.0722C50.4997 42.1436 51.2363 41.0412 51.7388 39.828C52.2414 38.6147 52.5 37.3143 52.5 36.0011V34.0011C52.5 31.349 51.4464 28.8054 49.5711 26.9301C47.6957 25.0547 45.1522 24.0011 42.5 24.0011ZM48.5 36.0011C48.5 37.5924 47.8679 39.1185 46.7427 40.2438C45.6174 41.369 44.0913 42.0011 42.5 42.0011H22.5C20.9087 42.0011 19.3826 41.369 18.2574 40.2438C17.1322 39.1185 16.5 37.5924 16.5 36.0011V34.0011C16.5 32.4098 17.1322 30.8837 18.2574 29.7585C19.3826 28.6333 20.9087 28.0011 22.5 28.0011H42.5C44.0913 28.0011 45.6174 28.6333 46.7427 29.7585C47.8679 30.8837 48.5 32.4098 48.5 34.0011V36.0011ZM52.5 8.00112C50.7264 8.0028 49.0034 8.59271 47.601 9.67846C46.1986 10.7642 45.1959 12.2845 44.75 14.0011H20.25C19.7664 12.1121 18.6095 10.4648 16.9968 9.36881C15.3841 8.27277 13.4266 7.80347 11.4922 8.0491C9.55785 8.29474 7.77979 9.23839 6.4922 10.7027C5.20462 12.167 4.49618 14.0512 4.50002 16.0011V36.0011C4.50531 40.7734 6.40343 45.3487 9.77794 48.7232C13.1524 52.0977 17.7277 53.9958 22.5 54.0011H42.5C47.2723 53.9958 51.8476 52.0977 55.2221 48.7232C58.5966 45.3487 60.4947 40.7734 60.5 36.0011V16.0011C60.5 13.8794 59.6572 11.8446 58.1569 10.3443C56.6566 8.84397 54.6217 8.00112 52.5 8.00112ZM56.5 36.0011C56.496 39.7129 55.0198 43.2716 52.3951 45.8962C49.7705 48.5209 46.2118 49.9972 42.5 50.0011H22.5C18.7882 49.9972 15.2296 48.5209 12.6049 45.8962C9.98026 43.2716 8.50399 39.7129 8.50002 36.0011V16.0011C8.50002 14.9403 8.92144 13.9228 9.67159 13.1727C10.4217 12.4225 11.4391 12.0011 12.5 12.0011C13.5609 12.0011 14.5783 12.4225 15.3284 13.1727C16.0786 13.9228 16.5 14.9403 16.5 16.0011C16.5 16.5316 16.7107 17.0403 17.0858 17.4153C17.4609 17.7904 17.9696 18.0011 18.5 18.0011H46.5C47.0304 18.0011 47.5392 17.7904 47.9142 17.4153C48.2893 17.0403 48.5 16.5316 48.5 16.0011C48.5 14.9403 48.9214 13.9228 49.6716 13.1727C50.4217 12.4225 51.4391 12.0011 52.5 12.0011C53.5609 12.0011 54.5783 12.4225 55.3284 13.1727C56.0786 13.9228 56.5 14.9403 56.5 16.0011V36.0011ZM26.5 35.0011C26.5 35.5945 26.3241 36.1745 25.9944 36.6678C25.6648 37.1612 25.1962 37.5457 24.6481 37.7728C24.0999 37.9998 23.4967 38.0592 22.9147 37.9435C22.3328 37.8277 21.7983 37.542 21.3787 37.1224C20.9591 36.7029 20.6734 36.1683 20.5577 35.5864C20.4419 35.0044 20.5013 34.4013 20.7284 33.8531C20.9554 33.3049 21.34 32.8364 21.8333 32.5067C22.3267 32.1771 22.9067 32.0011 23.5 32.0011C24.2957 32.0011 25.0587 32.3172 25.6213 32.8798C26.1839 33.4424 26.5 34.2055 26.5 35.0011ZM44.5 35.0011C44.5 35.5945 44.3241 36.1745 43.9944 36.6678C43.6648 37.1612 43.1962 37.5457 42.6481 37.7728C42.0999 37.9998 41.4967 38.0592 40.9147 37.9435C40.3328 37.8277 39.7982 37.542 39.3787 37.1224C38.9591 36.7029 38.6734 36.1683 38.5577 35.5864C38.4419 35.0044 38.5013 34.4013 38.7284 33.8531C38.9554 33.3049 39.34 32.8364 39.8333 32.5067C40.3266 32.1771 40.9067 32.0011 41.5 32.0011C42.2957 32.0011 43.0587 32.3172 43.6213 32.8798C44.1839 33.4424 44.5 34.2055 44.5 35.0011Z" fill="#55B982"/>
</svg>
