<svg width="368" height="200" viewBox="0 0 368 200" fill="none" xmlns="http://www.w3.org/2000/svg">
<g clip-path="url(#clip0_6_16898)">
<rect x="391.339" y="-59.4155" width="59" height="59" transform="rotate(45 391.339 -59.4155)" fill="white" stroke="#E5E5E5"/>
<rect x="307.9" y="-60.123" width="60" height="60" transform="rotate(45 307.9 -60.123)" fill="#E5E5E5" fill-opacity="0.35"/>
<rect x="349.619" y="-17.6962" width="59" height="59" transform="rotate(45 349.619 -17.6962)" fill="white" stroke="#E5E5E5"/>
<rect x="391.339" y="24.023" width="59" height="59" transform="rotate(45 391.339 24.023)" fill="white" stroke="#E5E5E5"/>
<rect x="224.461" y="-59.4159" width="59" height="59" transform="rotate(45 224.461 -59.4159)" fill="white" stroke="#E5E5E5"/>
<rect x="266.181" y="-17.6967" width="59" height="59" transform="rotate(45 266.181 -17.6967)" fill="white" stroke="#E5E5E5"/>
<rect x="307.9" y="24.023" width="59" height="59" transform="rotate(45 307.9 24.023)" fill="white" stroke="#E5E5E5"/>
<rect x="349.619" y="65.0352" width="60" height="60" transform="rotate(45 349.619 65.0352)" fill="#E5E5E5" fill-opacity="0.35"/>
<rect x="391.339" y="107.462" width="59" height="59" transform="rotate(45 391.339 107.462)" fill="white" stroke="#E5E5E5"/>
<rect x="141.023" y="-59.4159" width="59" height="59" transform="rotate(45 141.023 -59.4159)" fill="white" stroke="#E5E5E5"/>
<rect x="182.742" y="-17.6967" width="59" height="59" transform="rotate(45 182.742 -17.6967)" fill="white" stroke="#E5E5E5"/>
<rect x="224.461" y="24.0225" width="59" height="59" transform="rotate(45 224.461 24.0225)" fill="white" stroke="#E5E5E5"/>
<rect x="266.181" y="65.7423" width="59" height="59" transform="rotate(45 266.181 65.7423)" fill="white" stroke="#E5E5E5"/>
<rect x="307.9" y="107.462" width="59" height="59" transform="rotate(45 307.9 107.462)" fill="white" stroke="#E5E5E5"/>
<rect x="349.619" y="149.181" width="59" height="59" transform="rotate(45 349.619 149.181)" fill="white" stroke="#E5E5E5"/>
<rect x="57.5842" y="-59.4155" width="59" height="59" transform="rotate(45 57.5842 -59.4155)" fill="white" stroke="#E5E5E5"/>
<rect x="99.3036" y="-17.6962" width="59" height="59" transform="rotate(45 99.3036 -17.6962)" fill="white" stroke="#E5E5E5"/>
<rect x="141.023" y="24.023" width="59" height="59" transform="rotate(45 141.023 24.023)" fill="white" stroke="#E5E5E5"/>
<rect x="182.742" y="65.7423" width="59" height="59" transform="rotate(45 182.742 65.7423)" fill="white" stroke="#E5E5E5"/>
<rect x="224.461" y="107.462" width="59" height="59" transform="rotate(45 224.461 107.462)" fill="white" stroke="#E5E5E5"/>
<rect x="266.181" y="148.474" width="60" height="60" transform="rotate(45 266.181 148.474)" fill="#E5E5E5" fill-opacity="0.35"/>
<rect x="307.9" y="190.9" width="59" height="59" transform="rotate(45 307.9 190.9)" fill="white" stroke="#E5E5E5"/>
<rect x="15.8649" y="-18.4033" width="60" height="60" transform="rotate(45 15.8649 -18.4033)" fill="#E5E5E5" fill-opacity="0.35"/>
<rect x="57.5842" y="24.023" width="59" height="59" transform="rotate(45 57.5842 24.023)" fill="white" stroke="#E5E5E5"/>
<rect x="99.3035" y="65.7423" width="59" height="59" transform="rotate(45 99.3035 65.7423)" fill="white" stroke="#E5E5E5"/>
<rect x="141.023" y="107.462" width="59" height="59" transform="rotate(45 141.023 107.462)" fill="white" stroke="#E5E5E5"/>
<rect x="182.742" y="149.181" width="59" height="59" transform="rotate(45 182.742 149.181)" fill="white" stroke="#E5E5E5"/>
<rect x="224.461" y="190.9" width="59" height="59" transform="rotate(45 224.461 190.9)" fill="white" stroke="#E5E5E5"/>
<rect x="-25.8544" y="24.023" width="59" height="59" transform="rotate(45 -25.8544 24.023)" fill="white" stroke="#E5E5E5"/>
<rect x="15.865" y="65.7423" width="59" height="59" transform="rotate(45 15.865 65.7423)" fill="white" stroke="#E5E5E5"/>
<rect x="57.5842" y="107.462" width="59" height="59" transform="rotate(45 57.5842 107.462)" fill="white" stroke="#E5E5E5"/>
<rect x="99.3036" y="149.181" width="59" height="59" transform="rotate(45 99.3036 149.181)" fill="white" stroke="#E5E5E5"/>
<rect x="141.023" y="190.9" width="59" height="59" transform="rotate(45 141.023 190.9)" fill="white" stroke="#E5E5E5"/>
<rect x="-25.8544" y="107.462" width="59" height="59" transform="rotate(45 -25.8544 107.462)" fill="white" stroke="#E5E5E5"/>
<rect x="15.8649" y="148.474" width="60" height="60" transform="rotate(45 15.8649 148.474)" fill="#E5E5E5" fill-opacity="0.35"/>
<rect x="57.5842" y="190.9" width="59" height="59" transform="rotate(45 57.5842 190.9)" fill="white" stroke="#E5E5E5"/>
<g filter="url(#filter0_b_6_16898)">
<path d="M208 259.5V113.5L184 127.5V259.5H208Z" fill="#EAF7EF" stroke="#001405" stroke-linejoin="round"/>
<path d="M160 259.5V113.5L184 127.5V259.5H160Z" fill="#EAF7EF" stroke="#001405" stroke-linejoin="round"/>
<path d="M184 99.2974L160 113.149L184 127L208 113.149L184 99.2974Z" fill="#EAF7EF" stroke="#001405" stroke-linejoin="round"/>
</g>
<path opacity="0.2" d="M248 101C248 91.5113 247.007 82.1309 245.088 73.4796C243.168 64.8283 240.365 57.1036 236.865 50.8167C233.364 44.5298 229.246 39.8243 224.782 37.0115C220.319 34.1987 215.612 33.3428 210.973 34.5006C206.335 35.6584 201.87 38.8034 197.875 43.7273C193.88 48.6513 190.446 55.242 187.8 63.063C185.153 70.8841 183.356 79.7572 182.525 89.0948C182.049 94.4471 181.897 108.602 182.067 114C180.995 109.948 179.717 97.4011 178.251 93.8641C175.461 87.1316 172.045 81.5808 168.198 77.5286C164.352 73.4764 160.149 71.0022 155.832 70.2471C151.514 69.4921 147.166 70.4711 143.034 73.1282C138.903 75.7853 135.07 80.0684 131.754 85.7331C128.438 91.3978 125.704 98.3331 123.708 106.143C121.712 113.953 120.494 122.484 120.122 131.251C119.75 140.017 120.232 148.846 121.541 157.233" stroke="#001405" stroke-linecap="round" stroke-linejoin="round" stroke-dasharray="3 3"/>
<g filter="url(#filter1_b_6_16898)">
<path d="M144 307.5V161.5L120 175.5V307.5H144Z" fill="#EAF7EF" stroke="#001405" stroke-linejoin="round"/>
<path d="M96 307.5V161.5L120 175.5V307.5H96Z" fill="#EAF7EF" stroke="#001405" stroke-linejoin="round"/>
<path d="M120 147.297L96 161.149L120 175L144 161.149L120 147.297Z" fill="#EAF7EF" stroke="#001405" stroke-linejoin="round"/>
<ellipse cx="120" cy="152.725" rx="11.3478" ry="11.3478" fill="#55B982"/>
<path d="M111.976 146.166L112.039 146.243L111.976 146.166ZM120 143.449V143.349V143.449ZM128.024 146.166L128.087 146.089L128.024 146.166ZM111.976 157.376L112.027 157.289L111.976 157.376ZM120 143.449L120.05 143.536L120 143.449ZM120 143.449L119.95 143.536L120 143.449ZM112.039 146.243C114.235 144.449 117.116 143.549 120 143.549V143.349C117.076 143.349 114.149 144.261 111.913 146.089L112.039 146.243ZM120 143.549C122.884 143.549 125.765 144.449 127.961 146.243L128.087 146.089C125.851 144.261 122.924 143.349 120 143.349V143.549ZM108.752 152.725C108.752 150.383 109.844 148.037 112.039 146.243L111.913 146.089C109.676 147.917 108.552 150.318 108.552 152.725H108.752ZM127.961 146.243C130.155 148.037 131.248 150.383 131.248 152.725H131.448C131.448 150.318 130.324 147.917 128.087 146.089L127.961 146.243ZM127.973 157.289C125.776 158.563 122.891 159.203 120 159.203V159.403C122.917 159.403 125.839 158.758 128.074 157.462L127.973 157.289ZM120 159.203C117.109 159.203 114.223 158.563 112.027 157.289L111.926 157.462C114.161 158.758 117.083 159.403 120 159.403V159.203ZM112.027 157.289C109.829 156.016 108.753 154.36 108.753 152.725H108.553C108.553 154.456 109.692 156.167 111.926 157.462L112.027 157.289ZM131.247 152.725C131.247 154.36 130.171 156.016 127.973 157.289L128.074 157.462C130.308 156.167 131.447 154.456 131.447 152.725H131.247ZM112.1 157.362C112.1 154.823 112.988 152.002 114.43 149.495C115.871 146.989 117.86 144.806 120.05 143.536L119.95 143.363C117.722 144.654 115.711 146.867 114.256 149.395C112.802 151.924 111.9 154.779 111.9 157.362H112.1ZM114.409 162.485C112.994 161.674 112.1 159.912 112.1 157.362H111.9C111.9 159.954 112.81 161.799 114.309 162.659L114.409 162.485ZM120.05 143.536C122.232 142.271 124.186 142.159 125.59 142.964L125.689 142.79C124.201 141.938 122.168 142.077 119.95 143.363L120.05 143.536ZM119.95 143.536C122.14 144.806 124.129 146.989 125.57 149.495C127.011 152.002 127.9 154.823 127.9 157.362H128.1C128.1 154.779 127.198 151.924 125.743 149.395C124.289 146.867 122.278 144.654 120.05 143.363L119.95 143.536ZM114.41 142.963C115.815 142.159 117.768 142.271 119.95 143.536L120.05 143.363C117.832 142.077 115.799 141.938 114.311 142.79L114.41 142.963ZM127.9 157.362C127.9 159.913 127.005 161.675 125.59 162.486L125.689 162.659C127.189 161.8 128.1 159.955 128.1 157.362H127.9ZM119.9 141.362V164.087H120.1V141.362H119.9Z" fill="#001405"/>
<path d="M109.152 152.725C109.152 146.734 114.009 141.877 120 141.877V140.877C113.457 140.877 108.152 146.181 108.152 152.725H109.152ZM120 141.877C125.991 141.877 130.848 146.734 130.848 152.725H131.848C131.848 146.181 126.543 140.877 120 140.877V141.877ZM130.848 152.725C130.848 158.716 125.991 163.573 120 163.573V164.573C126.543 164.573 131.848 159.268 131.848 152.725H130.848ZM120 163.573C114.009 163.573 109.152 158.716 109.152 152.725H108.152C108.152 159.268 113.457 164.573 120 164.573V163.573Z" fill="#001405"/>
</g>
<g filter="url(#filter2_b_6_16898)">
<path d="M272 217.5V71.5L248 85.5V217.5H272Z" fill="#EAF7EF" stroke="#001405" stroke-linejoin="round"/>
<path d="M224 217.5V71.5L248 85.5V217.5H224Z" fill="#EAF7EF" stroke="#001405" stroke-linejoin="round"/>
<path d="M248 57.2974L224 71.1486L248 84.9998L272 71.1486L248 57.2974Z" fill="#EAF7EF" stroke="#001405" stroke-linejoin="round"/>
</g>
<g filter="url(#filter3_b_6_16898)">
<path d="M248 69.826L224 55.913L248 28.0869L272 55.913L248 69.826Z" fill="#55B982"/>
<path d="M248 69.826L224 55.913L248 28.0869M248 69.826L272 55.913L248 28.0869M248 69.826V28.0869" stroke="#001405" stroke-linejoin="round"/>
</g>
</g>
<defs>
<filter id="filter0_b_6_16898" x="156.5" y="95.7974" width="55" height="180.203" filterUnits="userSpaceOnUse" color-interpolation-filters="sRGB">
<feFlood flood-opacity="0" result="BackgroundImageFix"/>
<feGaussianBlur in="BackgroundImageFix" stdDeviation="1.5"/>
<feComposite in2="SourceAlpha" operator="in" result="effect1_backgroundBlur_6_16898"/>
<feBlend mode="normal" in="SourceGraphic" in2="effect1_backgroundBlur_6_16898" result="shape"/>
</filter>
<filter id="filter1_b_6_16898" x="92.5" y="137.877" width="55" height="186.123" filterUnits="userSpaceOnUse" color-interpolation-filters="sRGB">
<feFlood flood-opacity="0" result="BackgroundImageFix"/>
<feGaussianBlur in="BackgroundImageFix" stdDeviation="1.5"/>
<feComposite in2="SourceAlpha" operator="in" result="effect1_backgroundBlur_6_16898"/>
<feBlend mode="normal" in="SourceGraphic" in2="effect1_backgroundBlur_6_16898" result="shape"/>
</filter>
<filter id="filter2_b_6_16898" x="220.5" y="53.7974" width="55" height="180.203" filterUnits="userSpaceOnUse" color-interpolation-filters="sRGB">
<feFlood flood-opacity="0" result="BackgroundImageFix"/>
<feGaussianBlur in="BackgroundImageFix" stdDeviation="1.5"/>
<feComposite in2="SourceAlpha" operator="in" result="effect1_backgroundBlur_6_16898"/>
<feBlend mode="normal" in="SourceGraphic" in2="effect1_backgroundBlur_6_16898" result="shape"/>
</filter>
<filter id="filter3_b_6_16898" x="220.5" y="24.5869" width="55" height="48.7393" filterUnits="userSpaceOnUse" color-interpolation-filters="sRGB">
<feFlood flood-opacity="0" result="BackgroundImageFix"/>
<feGaussianBlur in="BackgroundImageFix" stdDeviation="1.5"/>
<feComposite in2="SourceAlpha" operator="in" result="effect1_backgroundBlur_6_16898"/>
<feBlend mode="normal" in="SourceGraphic" in2="effect1_backgroundBlur_6_16898" result="shape"/>
</filter>
<clipPath id="clip0_6_16898">
<rect width="370" height="200" fill="white" transform="translate(-1)"/>
</clipPath>
</defs>
</svg>
