<svg width="308" height="360" viewBox="0 0 308 360" fill="none" xmlns="http://www.w3.org/2000/svg">
<rect width="60" height="60" transform="matrix(-0.707107 0.707107 0.707107 0.707107 68.4052 -66.6367)" fill="white"/>
<rect x="-5.96046e-08" y="0.707107" width="59" height="59" transform="matrix(-0.707107 0.707107 0.707107 0.707107 67.9052 -66.4296)" stroke="#55B982" stroke-opacity="0.3"/>
<rect width="60" height="60" transform="matrix(-0.707107 0.707107 0.707107 0.707107 26.6858 -24.918)" fill="white"/>
<rect x="-5.96046e-08" y="0.707107" width="59" height="59" transform="matrix(-0.707107 0.707107 0.707107 0.707107 26.1858 -24.7109)" stroke="#55B982" stroke-opacity="0.3"/>
<rect width="60" height="60" transform="matrix(-0.707107 0.707107 0.707107 0.707107 -15.0334 16.8008)" fill="white"/>
<rect x="-5.96046e-08" y="0.707107" width="59" height="59" transform="matrix(-0.707107 0.707107 0.707107 0.707107 -15.5334 17.0079)" stroke="#55B982" stroke-opacity="0.3"/>
<rect x="194.27" y="-24.2109" width="60" height="60" transform="rotate(135 194.27 -24.2109)" fill="#55B982" fill-opacity="0.1"/>
<rect width="60" height="60" transform="matrix(-0.707107 0.707107 0.707107 0.707107 110.124 -24.918)" fill="white"/>
<rect x="-5.96046e-08" y="0.707107" width="59" height="59" transform="matrix(-0.707107 0.707107 0.707107 0.707107 109.624 -24.7109)" stroke="#55B982" stroke-opacity="0.3"/>
<rect width="60" height="60" transform="matrix(-0.707107 0.707107 0.707107 0.707107 68.405 16.8008)" fill="white"/>
<rect x="-5.96046e-08" y="0.707107" width="59" height="59" transform="matrix(-0.707107 0.707107 0.707107 0.707107 67.905 17.0079)" stroke="#55B982" stroke-opacity="0.3"/>
<rect width="60" height="60" transform="matrix(-0.707107 0.707107 0.707107 0.707107 26.6858 58.5195)" fill="white"/>
<rect x="-5.96046e-08" y="0.707107" width="59" height="59" transform="matrix(-0.707107 0.707107 0.707107 0.707107 26.1858 58.7266)" stroke="#55B982" stroke-opacity="0.3"/>
<rect x="27.3928" y="142.666" width="60" height="60" transform="rotate(135 27.3928 142.666)" fill="#55B982" fill-opacity="0.1"/>
<rect width="60" height="60" transform="matrix(-0.707107 0.707107 0.707107 0.707107 235.282 -66.6367)" fill="white"/>
<rect x="-5.96046e-08" y="0.707107" width="59" height="59" transform="matrix(-0.707107 0.707107 0.707107 0.707107 234.782 -66.4296)" stroke="#55B982" stroke-opacity="0.3"/>
<rect width="60" height="60" transform="matrix(-0.707107 0.707107 0.707107 0.707107 193.563 -24.918)" fill="white"/>
<rect x="-5.96046e-08" y="0.707107" width="59" height="59" transform="matrix(-0.707107 0.707107 0.707107 0.707107 193.063 -24.7109)" stroke="#55B982" stroke-opacity="0.3"/>
<rect width="60" height="60" transform="matrix(-0.707107 0.707107 0.707107 0.707107 151.844 16.8027)" fill="white"/>
<rect x="-5.96046e-08" y="0.707107" width="59" height="59" transform="matrix(-0.707107 0.707107 0.707107 0.707107 151.344 17.0098)" stroke="#55B982" stroke-opacity="0.3"/>
<rect width="60" height="60" transform="matrix(-0.707107 0.707107 0.707107 0.707107 110.124 58.5215)" fill="white"/>
<rect x="-5.96046e-08" y="0.707107" width="59" height="59" transform="matrix(-0.707107 0.707107 0.707107 0.707107 109.624 58.7286)" stroke="#55B982" stroke-opacity="0.3"/>
<rect width="60" height="60" transform="matrix(-0.707107 0.707107 0.707107 0.707107 68.4052 100.24)" fill="white"/>
<rect x="-5.96046e-08" y="0.707107" width="59" height="59" transform="matrix(-0.707107 0.707107 0.707107 0.707107 67.9052 100.447)" stroke="#55B982" stroke-opacity="0.3"/>
<rect width="60" height="60" transform="matrix(-0.707107 0.707107 0.707107 0.707107 26.6858 141.959)" fill="white"/>
<rect x="-5.96046e-08" y="0.707107" width="59" height="59" transform="matrix(-0.707107 0.707107 0.707107 0.707107 26.1858 142.166)" stroke="#55B982" stroke-opacity="0.3"/>
<rect width="60" height="60" transform="matrix(-0.707107 0.707107 0.707107 0.707107 -15.0334 183.68)" fill="white"/>
<rect x="-5.96046e-08" y="0.707107" width="59" height="59" transform="matrix(-0.707107 0.707107 0.707107 0.707107 -15.5334 183.887)" stroke="#55B982" stroke-opacity="0.3"/>
<rect width="60" height="60" transform="matrix(-0.707107 0.707107 0.707107 0.707107 277.002 -24.918)" fill="white"/>
<rect x="-5.96046e-08" y="0.707107" width="59" height="59" transform="matrix(-0.707107 0.707107 0.707107 0.707107 276.502 -24.7109)" stroke="#55B982" stroke-opacity="0.3"/>
<rect x="277.709" y="59.2285" width="60" height="60" transform="rotate(135 277.709 59.2285)" fill="#55B982" fill-opacity="0.1"/>
<rect width="60" height="60" transform="matrix(-0.707107 0.707107 0.707107 0.707107 193.563 58.5215)" fill="white"/>
<rect x="-5.96046e-08" y="0.707107" width="59" height="59" transform="matrix(-0.707107 0.707107 0.707107 0.707107 193.063 58.7286)" stroke="#55B982" stroke-opacity="0.3"/>
<rect width="60" height="60" transform="matrix(-0.707107 0.707107 0.707107 0.707107 151.844 100.24)" fill="white"/>
<rect x="-5.96046e-08" y="0.707107" width="59" height="59" transform="matrix(-0.707107 0.707107 0.707107 0.707107 151.344 100.447)" stroke="#55B982" stroke-opacity="0.3"/>
<rect width="60" height="60" transform="matrix(-0.707107 0.707107 0.707107 0.707107 110.124 141.959)" fill="white"/>
<rect x="-5.96046e-08" y="0.707107" width="59" height="59" transform="matrix(-0.707107 0.707107 0.707107 0.707107 109.624 142.166)" stroke="#55B982" stroke-opacity="0.3"/>
<rect width="60" height="60" transform="matrix(-0.707107 0.707107 0.707107 0.707107 68.405 183.678)" fill="white"/>
<rect x="-5.96046e-08" y="0.707107" width="59" height="59" transform="matrix(-0.707107 0.707107 0.707107 0.707107 67.905 183.885)" stroke="#55B982" stroke-opacity="0.3"/>
<rect width="60" height="60" transform="matrix(-0.707107 0.707107 0.707107 0.707107 26.6858 225.398)" fill="white"/>
<rect x="-5.96046e-08" y="0.707107" width="59" height="59" transform="matrix(-0.707107 0.707107 0.707107 0.707107 26.1858 225.606)" stroke="#55B982" stroke-opacity="0.3"/>
<rect width="60" height="60" transform="matrix(-0.707107 0.707107 0.707107 0.707107 -15.0336 267.117)" fill="white"/>
<rect x="-5.96046e-08" y="0.707107" width="59" height="59" transform="matrix(-0.707107 0.707107 0.707107 0.707107 -15.5336 267.324)" stroke="#55B982" stroke-opacity="0.3"/>
<rect width="60" height="60" transform="matrix(-0.707107 0.707107 0.707107 0.707107 318.721 16.8008)" fill="white"/>
<rect x="-5.96046e-08" y="0.707107" width="59" height="59" transform="matrix(-0.707107 0.707107 0.707107 0.707107 318.221 17.0079)" stroke="#55B982" stroke-opacity="0.3"/>
<rect width="60" height="60" transform="matrix(-0.707107 0.707107 0.707107 0.707107 277.002 58.5195)" fill="white"/>
<rect x="-5.96046e-08" y="0.707107" width="59" height="59" transform="matrix(-0.707107 0.707107 0.707107 0.707107 276.502 58.7266)" stroke="#55B982" stroke-opacity="0.3"/>
<rect width="60" height="60" transform="matrix(-0.707107 0.707107 0.707107 0.707107 235.282 100.24)" fill="white"/>
<rect x="-5.96046e-08" y="0.707107" width="59" height="59" transform="matrix(-0.707107 0.707107 0.707107 0.707107 234.782 100.447)" stroke="#55B982" stroke-opacity="0.3"/>
<rect width="60" height="60" transform="matrix(-0.707107 0.707107 0.707107 0.707107 193.563 141.959)" fill="white"/>
<rect x="-5.96046e-08" y="0.707107" width="59" height="59" transform="matrix(-0.707107 0.707107 0.707107 0.707107 193.063 142.166)" stroke="#55B982" stroke-opacity="0.3"/>
<rect width="60" height="60" transform="matrix(-0.707107 0.707107 0.707107 0.707107 151.844 183.678)" fill="white"/>
<rect x="-5.96046e-08" y="0.707107" width="59" height="59" transform="matrix(-0.707107 0.707107 0.707107 0.707107 151.344 183.885)" stroke="#55B982" stroke-opacity="0.3"/>
<rect width="60" height="60" transform="matrix(-0.707107 0.707107 0.707107 0.707107 110.124 225.396)" fill="white"/>
<rect x="-5.96046e-08" y="0.707107" width="59" height="59" transform="matrix(-0.707107 0.707107 0.707107 0.707107 109.624 225.604)" stroke="#55B982" stroke-opacity="0.3"/>
<rect width="60" height="60" transform="matrix(-0.707107 0.707107 0.707107 0.707107 68.4052 267.117)" fill="white"/>
<rect x="-5.96046e-08" y="0.707107" width="59" height="59" transform="matrix(-0.707107 0.707107 0.707107 0.707107 67.9052 267.324)" stroke="#55B982" stroke-opacity="0.3"/>
<rect width="60" height="60" transform="matrix(-0.707107 0.707107 0.707107 0.707107 26.6858 308.836)" fill="white"/>
<rect x="-5.96046e-08" y="0.707107" width="59" height="59" transform="matrix(-0.707107 0.707107 0.707107 0.707107 26.1858 309.043)" stroke="#55B982" stroke-opacity="0.3"/>
<rect x="27.3929" y="392.982" width="60" height="60" transform="rotate(135 27.3929 392.982)" fill="#55B982" fill-opacity="0.1"/>
<rect width="60" height="60" transform="matrix(-0.707107 0.707107 0.707107 0.707107 318.721 100.238)" fill="white"/>
<rect x="-5.96046e-08" y="0.707107" width="59" height="59" transform="matrix(-0.707107 0.707107 0.707107 0.707107 318.221 100.445)" stroke="#55B982" stroke-opacity="0.3"/>
<rect width="60" height="60" transform="matrix(-0.707107 0.707107 0.707107 0.707107 277.002 141.959)" fill="white"/>
<rect x="-5.96046e-08" y="0.707107" width="59" height="59" transform="matrix(-0.707107 0.707107 0.707107 0.707107 276.502 142.166)" stroke="#55B982" stroke-opacity="0.3"/>
<rect width="60" height="60" transform="matrix(-0.707107 0.707107 0.707107 0.707107 235.282 183.678)" fill="white"/>
<rect x="-5.96046e-08" y="0.707107" width="59" height="59" transform="matrix(-0.707107 0.707107 0.707107 0.707107 234.782 183.885)" stroke="#55B982" stroke-opacity="0.3"/>
<rect width="60" height="60" transform="matrix(-0.707107 0.707107 0.707107 0.707107 193.563 225.396)" fill="white"/>
<rect x="-5.96046e-08" y="0.707107" width="59" height="59" transform="matrix(-0.707107 0.707107 0.707107 0.707107 193.063 225.604)" stroke="#55B982" stroke-opacity="0.3"/>
<rect width="60" height="60" transform="matrix(-0.707107 0.707107 0.707107 0.707107 151.844 267.115)" fill="white"/>
<rect x="-5.96046e-08" y="0.707107" width="59" height="59" transform="matrix(-0.707107 0.707107 0.707107 0.707107 151.344 267.322)" stroke="#55B982" stroke-opacity="0.3"/>
<rect x="152.551" y="351.262" width="60" height="60" transform="rotate(135 152.551 351.262)" fill="#55B982" fill-opacity="0.1"/>
<rect x="110.831" y="392.98" width="60" height="60" transform="rotate(135 110.831 392.98)" fill="#55B982" fill-opacity="0.1"/>
<rect x="361.147" y="226.105" width="60" height="60" transform="rotate(135 361.147 226.105)" fill="#55B982" fill-opacity="0.1"/>
<rect width="60" height="60" transform="matrix(-0.707107 0.707107 0.707107 0.707107 277.002 225.398)" fill="white"/>
<rect x="-5.96046e-08" y="0.707107" width="59" height="59" transform="matrix(-0.707107 0.707107 0.707107 0.707107 276.502 225.606)" stroke="#55B982" stroke-opacity="0.3"/>
<rect width="60" height="60" transform="matrix(-0.707107 0.707107 0.707107 0.707107 235.282 267.117)" fill="white"/>
<rect x="-5.96046e-08" y="0.707107" width="59" height="59" transform="matrix(-0.707107 0.707107 0.707107 0.707107 234.782 267.324)" stroke="#55B982" stroke-opacity="0.3"/>
<rect width="60" height="60" transform="matrix(-0.707107 0.707107 0.707107 0.707107 193.563 308.836)" fill="white"/>
<rect x="-5.96046e-08" y="0.707107" width="59" height="59" transform="matrix(-0.707107 0.707107 0.707107 0.707107 193.063 309.043)" stroke="#55B982" stroke-opacity="0.3"/>
<rect width="60" height="60" transform="matrix(-0.707107 0.707107 0.707107 0.707107 151.844 350.557)" fill="white"/>
<rect x="-5.96046e-08" y="0.707107" width="59" height="59" transform="matrix(-0.707107 0.707107 0.707107 0.707107 151.344 350.764)" stroke="#55B982" stroke-opacity="0.3"/>
<rect width="60" height="60" transform="matrix(-0.707107 0.707107 0.707107 0.707107 318.721 267.117)" fill="white"/>
<rect x="-5.96046e-08" y="0.707107" width="59" height="59" transform="matrix(-0.707107 0.707107 0.707107 0.707107 318.221 267.324)" stroke="#55B982" stroke-opacity="0.3"/>
<rect x="319.428" y="351.262" width="60" height="60" transform="rotate(135 319.428 351.262)" fill="#55B982" fill-opacity="0.1"/>
<rect width="60" height="60" transform="matrix(-0.707107 0.707107 0.707107 0.707107 235.282 350.555)" fill="white"/>
<rect x="-5.96046e-08" y="0.707107" width="59" height="59" transform="matrix(-0.707107 0.707107 0.707107 0.707107 234.782 350.762)" stroke="#55B982" stroke-opacity="0.3"/>
<rect width="60" height="60" transform="matrix(-0.707107 0.707107 0.707107 0.707107 318.721 350.555)" fill="white"/>
<rect x="-5.96046e-08" y="0.707107" width="59" height="59" transform="matrix(-0.707107 0.707107 0.707107 0.707107 318.221 350.762)" stroke="#55B982" stroke-opacity="0.3"/>
</svg>
